<?xml version="1.0" encoding="iso-8859-1"?>
<!-- Generator: Adobe Illustrator 19.0.0, SVG Export Plug-In . SVG Version: 6.00 Build 0)  -->
<svg version="1.1" id="Layer_1" xmlns="http://www.w3.org/2000/svg" xmlns:xlink="http://www.w3.org/1999/xlink" x="0px" y="0px"
	 viewBox="0 0 512.001 512.001" style="enable-background:new 0 0 512.001 512.001;" xml:space="preserve">
<path style="fill:#E0E0E2;" d="M441.89,244.54c16.03-2.503,33.419-4.249,52.31-4.781c0,0-85.354-0.119-146.725-12.649
	c-56.919-11.621-126.022-11.621-182.941,0c-61.371,12.529-146.725,12.649-146.725,12.649c18.89,0.532,36.28,2.278,52.31,4.781
	c-30.003,0.723-52.31,0.737-52.31,0.737c36.123,0.432,66.813,3.682,92.831,7.692c38.666,10.064,66.999,23.115,87.414,29.163
	c34.151,10.119,43.319,8.222,57.952,8.222c14.633,0,23.8,1.897,57.952-8.222c20.414-6.049,48.748-19.101,87.414-29.163
	c26.018-4.01,56.708-7.26,92.831-7.692C494.2,245.277,471.892,245.263,441.89,244.54z"/>
<path style="fill:#C60024;" d="M483.271,234.983c-45.346-23.018-105.04-89.082-130.744-105.901
	c-18.086-11.835-72.098-30.357-96.527,17.076c-24.429-47.433-78.441-28.91-96.527-17.076
	c-25.703,16.819-85.397,82.883-130.744,105.901c-3.748,1.902-7.398,3.514-10.923,4.777c0,0,47.433,28.46,91.703,76.525
	s79.215,80.952,146.49,80.952s102.218-32.887,146.49-80.952c44.27-48.065,91.703-76.525,91.703-76.525
	C490.669,238.497,487.018,236.885,483.271,234.983z M36.316,239.968c0.006,0.004,0.011,0.007,0.017,0.011
	c0.014,0.01,0.03,0.02,0.045,0.03C36.356,239.996,36.336,239.982,36.316,239.968z"/>
<g>
	<path style="fill:#A50020;" d="M402.49,300.613c-44.271,45.434-79.215,76.52-146.49,76.52s-102.219-31.087-146.49-76.52
		c-31.315-32.138-64.208-55-80.781-65.63c-3.748,1.902-7.398,3.514-10.923,4.777c0,0,47.433,28.46,91.703,76.525
		s79.215,80.952,146.49,80.952s102.218-32.887,146.49-80.952c44.27-48.065,91.703-76.525,91.703-76.525
		c-3.524-1.262-7.175-2.874-10.922-4.777C466.698,245.614,433.805,268.475,402.49,300.613z"/>
	<path style="fill:#A50020;" d="M256,164.638c24.429-42.219,78.441-25.733,96.527-15.199c24.29,14.147,78.935,67.434,123.141,90.542
		c2.801-1.882,5.357-3.556,7.602-4.997c-45.346-23.018-105.04-89.082-130.744-105.901c-18.086-11.835-72.098-30.357-96.527,17.076
		c-24.429-47.433-78.441-28.91-96.527-17.076c-25.703,16.819-85.397,82.883-130.744,105.901c2.246,1.44,4.801,3.114,7.602,4.997
		c44.206-23.108,98.85-76.394,123.141-90.542C177.56,138.904,231.571,122.418,256,164.638z"/>
</g>
<path style="fill:#C6C5CB;" d="M347.475,227.11c-56.919-11.621-126.022-11.621-182.941,0
	c-61.371,12.529-146.725,12.649-146.725,12.649c89.806,2.53,146.094,32.255,180.245,42.374s43.319,8.222,57.952,8.222
	c14.633,0,23.8,1.897,57.952-8.222c34.151-10.119,90.438-39.844,180.245-42.374C494.2,239.76,408.846,239.64,347.475,227.11z"/>
<path style="fill:#E0E0E2;" d="M347.475,239.909c-56.919-4.931-126.022-4.931-182.941,0c-61.371,5.317-146.725,5.368-146.725,5.368
	c89.806,1.073,146.094,19.56,180.245,23.855c34.151,4.294,43.319,5.446,57.952,5.446c14.633,0,23.8-1.153,57.952-5.446
	c34.151-4.294,90.438-22.781,180.245-23.855C494.2,245.277,408.846,245.226,347.475,239.909z"/>
<g>
	<polygon style="fill:#D80029;" points="179.027,39.121 159.347,19.44 170.175,8.613 179.027,17.465 187.795,8.699 198.623,19.527 	
		"/>
	<polygon style="fill:#D80029;" points="32.625,370.434 12.945,350.753 23.773,339.926 32.625,348.778 41.392,340.011 
		52.221,350.839 	"/>
	<polygon style="fill:#D80029;" points="289.592,503.388 269.91,483.706 280.739,472.878 289.592,481.732 298.358,472.965 
		309.187,483.791 	"/>
	<polygon style="fill:#D80029;" points="468.239,109.477 448.558,89.796 459.386,78.968 468.239,87.821 477.006,79.054 
		487.835,89.882 	"/>
</g>
<g>
	<path style="fill:#FFFFFF;" d="M333.695,147.713c-4.342-2.046-11.299-4.796-19.787-6.287l2.648-15.081
		c10.158,1.782,18.476,5.071,23.665,7.515L333.695,147.713z"/>
	<path style="fill:#FFFFFF;" d="M379.639,193.89c-3.558-3.2-7.04-6.358-10.413-9.42c-12.534-11.372-23.361-21.192-31.114-26.808
		l8.983-12.402c8.437,6.11,19.55,16.193,32.42,27.869c3.358,3.046,6.823,6.19,10.363,9.374L379.639,193.89z"/>
	<path style="fill:#FFFFFF;" d="M223.315,382.617c-35.894-7.167-60.481-26.944-81.704-47.249l10.585-11.064
		c26.737,25.581,48.211,38.126,74.118,43.297L223.315,382.617z"/>
</g>
<path d="M496.774,232.551c-28.658-10.264-67.202-45.663-98.174-74.105c-17-15.612-31.681-29.096-41.88-35.769v-0.001
	c-11.6-7.591-40.842-20.021-68.463-12.734c-13.125,3.463-23.932,10.776-32.256,21.804c-8.322-11.029-19.13-18.342-32.257-21.804
	c-27.621-7.284-56.862,5.144-68.463,12.735c-10.2,6.673-24.881,20.157-41.88,35.769c-30.971,28.443-69.516,63.842-98.174,74.105
	L0,238.004l13.869,8.321c0.464,0.278,46.984,28.432,90.011,75.146c44.989,48.846,82.236,83.422,152.122,83.422
	c69.885,0,107.131-34.576,152.121-83.422c42.942-46.623,89.547-74.868,90.011-75.146l13.869-8.321L496.774,232.551z
	 M123.758,169.725c16.505-15.158,30.758-28.248,39.908-34.235c11.19-7.322,35.384-16.224,56.174-10.741
	c12.686,3.346,22.563,11.729,29.354,24.916l6.807,13.217l6.807-13.217c6.791-13.187,16.667-21.569,29.353-24.915
	c20.79-5.482,44.984,3.42,56.174,10.741c9.15,5.987,23.404,19.078,39.908,34.235c22.604,20.76,49.112,45.1,73.862,61.588
	c-30.252-1.194-76.295-4.19-113.1-11.703c-58.236-11.888-127.769-11.888-186.005,0c-36.79,7.511-82.846,10.507-113.104,11.702
	C74.646,214.824,101.154,190.484,123.758,169.725z M408.653,243.303c-29.032,6.881-52.592,15.617-71.034,22.456
	c-9.904,3.673-18.456,6.844-25.839,9.032c-28.301,8.387-38.269,8.205-49.802,7.979c-1.939-0.036-3.903-0.073-5.974-0.073
	c-2.071,0-4.034,0.037-5.974,0.073c-11.534,0.222-21.501,0.405-49.802-7.979c-7.382-2.188-15.935-5.359-25.839-9.032
	c-18.441-6.839-42.002-15.576-71.034-22.456c20.912-1.893,42.942-4.656,62.709-8.691c56.318-11.499,123.562-11.499,179.879,0
	C365.709,238.648,387.741,241.412,408.653,243.303z M396.857,311.097C353.194,358.504,319.8,389.58,256,389.58
	s-97.194-31.074-140.858-78.483c-25.446-27.627-51.675-48.737-69.846-61.975c54.01,5.141,93.674,19.836,123.767,30.996
	c10.162,3.768,18.938,7.023,26.813,9.356c30.573,9.057,42.17,8.834,54.442,8.608c1.846-0.035,3.715-0.07,5.684-0.07
	c1.969,0,3.84,0.036,5.684,0.07c1.924,0.036,3.831,0.071,5.799,0.071c10.578,0,22.866-1.042,48.644-8.68
	c7.875-2.334,16.652-5.588,26.813-9.356c30.092-11.159,69.752-25.853,123.759-30.995
	C448.531,262.362,422.303,283.47,396.857,311.097z"/>
<g>
</g>
<g>
</g>
<g>
</g>
<g>
</g>
<g>
</g>
<g>
</g>
<g>
</g>
<g>
</g>
<g>
</g>
<g>
</g>
<g>
</g>
<g>
</g>
<g>
</g>
<g>
</g>
<g>
</g>
</svg>
